<svg xmlns="http://www.w3.org/2000/svg" viewBox="0 0 100 100" aria-hidden="true" focusable="false">
  <!-- Vector recreation of the FFC green-football mark: ball body, two white end stripes,
       and a white five-bar "equalizer" lace pattern. The wrapping .provider-badge span
       carries the accessible label; the SVG itself is decorative. -->
  <ellipse cx="50" cy="50" rx="42" ry="33" fill="#57a447"/>
  <path d="M50 17c23.2 0 42 14.8 42 33s-18.8 33-42 33S8 68.2 8 50 26.8 17 50 17Zm0 6C30.1 23 14 35 14 50s16.1 27 36 27 36-12 36-27S69.9 23 50 23Z" fill="#4c9040" opacity=".35"/>
  <rect x="2" y="38" width="14" height="24" rx="2" fill="#fff"/>
  <rect x="84" y="38" width="14" height="24" rx="2" fill="#fff"/>
  <g fill="#fff">
    <rect x="26" y="47" width="7" height="12" rx="1"/>
    <rect x="37" y="39" width="7" height="20" rx="1"/>
    <rect x="48" y="45" width="7" height="14" rx="1"/>
    <rect x="59" y="39" width="7" height="20" rx="1"/>
    <rect x="70" y="47" width="7" height="12" rx="1"/>
  </g>
</svg>
